# Blender v2.79 (sub 0) OBJ File: ''
# www.blender.org
mtllib arrow.mtl
o Cone
v 0.000000 2.581419 -1.251187
v 0.000000 5.083793 0.000000
v 0.244094 2.581419 -1.227146
v 0.478809 2.581419 -1.155946
v 0.695122 2.581419 -1.040324
v 0.884723 2.581419 -0.884723
v 1.040324 2.581419 -0.695122
v 1.155946 2.581419 -0.478809
v 1.227146 2.581419 -0.244095
v 1.251187 2.581419 -0.000000
v 1.227146 2.581419 0.244094
v 1.155946 2.581419 0.478808
v 1.040324 2.581419 0.695122
v 0.884723 2.581419 0.884723
v 0.695122 2.581419 1.040324
v 0.478808 2.581419 1.155946
v 0.244094 2.581419 1.227146
v -0.000000 2.581419 1.251187
v -0.244095 2.581419 1.227146
v -0.478809 2.581419 1.155946
v -0.695123 2.581419 1.040323
v -0.884723 2.581419 0.884722
v -1.040324 2.581419 0.695122
v -1.155946 2.581419 0.478808
v -1.227146 2.581419 0.244093
v -1.251187 2.581419 -0.000001
v -1.227146 2.581419 -0.244096
v -1.155945 2.581419 -0.478810
v -1.040323 2.581419 -0.695123
v -0.884722 2.581419 -0.884724
v -0.695121 2.581419 -1.040325
v -0.478807 2.581419 -1.155947
v -0.244093 2.581419 -1.227146
vn 0.0878 0.4455 -0.8910
vn 0.2599 0.4455 -0.8567
vn 0.4220 0.4455 -0.7896
vn 0.5680 0.4455 -0.6921
vn 0.6921 0.4455 -0.5680
vn 0.7896 0.4455 -0.4220
vn 0.8567 0.4455 -0.2599
vn 0.8910 0.4455 -0.0878
vn 0.8910 0.4455 0.0878
vn 0.8567 0.4455 0.2599
vn 0.7896 0.4455 0.4220
vn 0.6921 0.4455 0.5680
vn 0.5680 0.4455 0.6921
vn 0.4220 0.4455 0.7896
vn 0.2599 0.4455 0.8567
vn 0.0878 0.4455 0.8910
vn -0.0878 0.4455 0.8910
vn -0.2599 0.4455 0.8567
vn -0.4220 0.4455 0.7896
vn -0.5680 0.4455 0.6921
vn -0.6921 0.4455 0.5680
vn -0.7896 0.4455 0.4220
vn -0.8567 0.4455 0.2599
vn -0.8910 0.4455 0.0878
vn -0.8910 0.4455 -0.0878
vn -0.8567 0.4455 -0.2599
vn -0.7896 0.4455 -0.4220
vn -0.6921 0.4455 -0.5680
vn -0.5680 0.4455 -0.6921
vn -0.4220 0.4455 -0.7896
vn -0.2599 0.4455 -0.8567
vn -0.0878 0.4455 -0.8910
vn 0.0000 -1.0000 -0.0000
usemtl None
s off
f 1//1 2//1 3//1
f 3//2 2//2 4//2
f 4//3 2//3 5//3
f 5//4 2//4 6//4
f 6//5 2//5 7//5
f 7//6 2//6 8//6
f 8//7 2//7 9//7
f 9//8 2//8 10//8
f 10//9 2//9 11//9
f 11//10 2//10 12//10
f 12//11 2//11 13//11
f 13//12 2//12 14//12
f 14//13 2//13 15//13
f 15//14 2//14 16//14
f 16//15 2//15 17//15
f 17//16 2//16 18//16
f 18//17 2//17 19//17
f 19//18 2//18 20//18
f 20//19 2//19 21//19
f 21//20 2//20 22//20
f 22//21 2//21 23//21
f 23//22 2//22 24//22
f 24//23 2//23 25//23
f 25//24 2//24 26//24
f 26//25 2//25 27//25
f 27//26 2//26 28//26
f 28//27 2//27 29//27
f 29//28 2//28 30//28
f 30//29 2//29 31//29
f 31//30 2//30 32//30
f 32//31 2//31 33//31
f 33//32 2//32 1//32
f 1//33 3//33 4//33 5//33 6//33 7//33 8//33 9//33 10//33 11//33 12//33 13//33 14//33 15//33 16//33 17//33 18//33 19//33 20//33 21//33 22//33 23//33 24//33 25//33 26//33 27//33 28//33 29//33 30//33 31//33 32//33 33//33
o Cylinder
v 0.000000 -2.829050 -1.000000
v 0.000000 2.829050 -1.000000
v 0.195090 -2.829050 -0.980785
v 0.195090 2.829050 -0.980785
v 0.382683 -2.829050 -0.923880
v 0.382683 2.829050 -0.923880
v 0.555570 -2.829050 -0.831470
v 0.555570 2.829050 -0.831470
v 0.707107 -2.829050 -0.707107
v 0.707107 2.829050 -0.707107
v 0.831470 -2.829050 -0.555570
v 0.831470 2.829050 -0.555570
v 0.923880 -2.829050 -0.382683
v 0.923880 2.829050 -0.382683
v 0.980785 -2.829050 -0.195090
v 0.980785 2.829050 -0.195090
v 1.000000 -2.829050 -0.000000
v 1.000000 2.829050 -0.000000
v 0.980785 -2.829050 0.195090
v 0.980785 2.829050 0.195090
v 0.923880 -2.829050 0.382683
v 0.923880 2.829050 0.382683
v 0.831470 -2.829050 0.555570
v 0.831470 2.829050 0.555570
v 0.707107 -2.829050 0.707107
v 0.707107 2.829050 0.707107
v 0.555570 -2.829050 0.831470
v 0.555570 2.829050 0.831470
v 0.382683 -2.829050 0.923880
v 0.382683 2.829050 0.923880
v 0.195090 -2.829050 0.980785
v 0.195090 2.829050 0.980785
v -0.000000 -2.829050 1.000000
v -0.000000 2.829050 1.000000
v -0.195091 -2.829050 0.980785
v -0.195091 2.829050 0.980785
v -0.382684 -2.829050 0.923879
v -0.382684 2.829050 0.923879
v -0.555571 -2.829050 0.831469
v -0.555571 2.829050 0.831469
v -0.707107 -2.829050 0.707106
v -0.707107 2.829050 0.707106
v -0.831470 -2.829050 0.555570
v -0.831470 2.829050 0.555570
v -0.923880 -2.829050 0.382683
v -0.923880 2.829050 0.382683
v -0.980785 -2.829050 0.195089
v -0.980785 2.829050 0.195089
v -1.000000 -2.829050 -0.000001
v -1.000000 2.829050 -0.000001
v -0.980785 -2.829050 -0.195091
v -0.980785 2.829050 -0.195091
v -0.923879 -2.829050 -0.382684
v -0.923879 2.829050 -0.382684
v -0.831469 -2.829050 -0.555571
v -0.831469 2.829050 -0.555571
v -0.707106 -2.829050 -0.707108
v -0.707106 2.829050 -0.707108
v -0.555569 -2.829050 -0.831470
v -0.555569 2.829050 -0.831470
v -0.382682 -2.829050 -0.923880
v -0.382682 2.829050 -0.923880
v -0.195089 -2.829050 -0.980786
v -0.195089 2.829050 -0.980786
vn 0.0980 0.0000 -0.9952
vn 0.2903 0.0000 -0.9569
vn 0.4714 0.0000 -0.8819
vn 0.6344 0.0000 -0.7730
vn 0.7730 0.0000 -0.6344
vn 0.8819 0.0000 -0.4714
vn 0.9569 0.0000 -0.2903
vn 0.9952 0.0000 -0.0980
vn 0.9952 0.0000 0.0980
vn 0.9569 0.0000 0.2903
vn 0.8819 0.0000 0.4714
vn 0.7730 0.0000 0.6344
vn 0.6344 0.0000 0.7730
vn 0.4714 0.0000 0.8819
vn 0.2903 0.0000 0.9569
vn 0.0980 0.0000 0.9952
vn -0.0980 0.0000 0.9952
vn -0.2903 0.0000 0.9569
vn -0.4714 0.0000 0.8819
vn -0.6344 0.0000 0.7730
vn -0.7730 0.0000 0.6344
vn -0.8819 0.0000 0.4714
vn -0.9569 0.0000 0.2903
vn -0.9952 0.0000 0.0980
vn -0.9952 0.0000 -0.0980
vn -0.9569 0.0000 -0.2903
vn -0.8819 0.0000 -0.4714
vn -0.7730 0.0000 -0.6344
vn -0.6344 0.0000 -0.7730
vn -0.4714 0.0000 -0.8819
vn 0.0000 1.0000 0.0000
vn -0.2903 0.0000 -0.9569
vn -0.0980 0.0000 -0.9952
vn 0.0000 -1.0000 -0.0000
usemtl None
s off
f 34//34 35//34 37//34 36//34
f 36//35 37//35 39//35 38//35
f 38//36 39//36 41//36 40//36
f 40//37 41//37 43//37 42//37
f 42//38 43//38 45//38 44//38
f 44//39 45//39 47//39 46//39
f 46//40 47//40 49//40 48//40
f 48//41 49//41 51//41 50//41
f 50//42 51//42 53//42 52//42
f 52//43 53//43 55//43 54//43
f 54//44 55//44 57//44 56//44
f 56//45 57//45 59//45 58//45
f 58//46 59//46 61//46 60//46
f 60//47 61//47 63//47 62//47
f 62//48 63//48 65//48 64//48
f 64//49 65//49 67//49 66//49
f 66//50 67//50 69//50 68//50
f 68//51 69//51 71//51 70//51
f 70//52 71//52 73//52 72//52
f 72//53 73//53 75//53 74//53
f 74//54 75//54 77//54 76//54
f 76//55 77//55 79//55 78//55
f 78//56 79//56 81//56 80//56
f 80//57 81//57 83//57 82//57
f 82//58 83//58 85//58 84//58
f 84//59 85//59 87//59 86//59
f 86//60 87//60 89//60 88//60
f 88//61 89//61 91//61 90//61
f 90//62 91//62 93//62 92//62
f 92//63 93//63 95//63 94//63
f 37//64 35//64 97//64 95//64 93//64 91//64 89//64 87//64 85//64 83//64 81//64 79//64 77//64 75//64 73//64 71//64 69//64 67//64 65//64 63//64 61//64 59//64 57//64 55//64 53//64 51//64 49//64 47//64 45//64 43//64 41//64 39//64
f 94//65 95//65 97//65 96//65
f 96//66 97//66 35//66 34//66
f 34//67 36//67 38//67 40//67 42//67 44//67 46//67 48//67 50//67 52//67 54//67 56//67 58//67 60//67 62//67 64//67 66//67 68//67 70//67 72//67 74//67 76//67 78//67 80//67 82//67 84//67 86//67 88//67 90//67 92//67 94//67 96//67
